<svg width="63" height="34" viewBox="0 0 63 34" fill="none" xmlns="http://www.w3.org/2000/svg">
<path d="M1163.6 0C1147.85 0 1147.85 14 1132.21 14C1116.57 14 1116.46 0 1100.81 0C1085.17 0 1085.06 14 1069.42 14C1053.67 14 1053.67 0 1037.91 0C1022.16 0 1022.16 14 1006.52 14C990.766 14 990.766 0 975.124 0C959.371 0 959.371 14 943.728 14C928.085 14 927.648 0 912.005 0C896.252 0 896.252 14 880.609 14C864.966 14 864.748 0 849.105 0C833.352 0 833.352 14 817.709 14C801.957 14 801.957 0 786.205 0C770.452 0 770.452 14 754.809 14C739.057 14 739.057 0 723.414 0C707.771 0 707.552 14 691.8 14C676.048 14 676.048 0 660.405 0C644.652 0 644.652 14 629.009 14C613.257 14 613.257 0 597.505 0C581.752 0 581.752 14 566.109 14C550.357 14 550.357 0 534.714 0C518.962 0 518.962 14 503.319 14C487.566 14 487.566 0 471.923 0C456.171 0 456.171 14 440.419 14C424.666 14 424.666 0 408.914 0C393.162 0 393.162 14 377.409 14C361.657 14 361.657 0 345.905 0C330.152 0 330.152 14 314.4 14C298.648 14 298.648 0 282.895 0C267.143 0 267.143 14 251.391 14C235.638 14 235.638 0 219.886 0C204.134 0 204.134 14 188.491 14C172.738 14 172.738 0 156.986 0C141.234 0 141.234 14 125.481 14C109.729 14 109.729 0 93.9765 0C78.2242 0 78.2242 14 62.4718 14C46.7195 14 46.7195 0 30.9671 0C15.6524 0 15.6523 14 -0.099998 14C-15.8523 14 -15.8523 0 -31.4953 0C-47.1383 0 -47.2477 14 -63 14V34H1195V14C1179.25 14 1179.25 0 1163.6 0Z" fill="white"/>
</svg>
